<?xml version="1.0" standalone="no"?>
<!DOCTYPE svg PUBLIC "-//W3C//DTD SVG 20010904//EN"
 "http://www.w3.org/TR/2001/REC-SVG-20010904/DTD/svg10.dtd">
<svg version="1.0" xmlns="http://www.w3.org/2000/svg"
 width="200.000000pt" height="200.000000pt" viewBox="0 0 200.000000 200.000000"
 preserveAspectRatio="xMidYMid meet">

<g transform="translate(0.000000,200.000000) scale(0.100000,-0.100000)"
fill="#000000" stroke="none">
<path d="M0 1000 l0 -1000 350 0 349 0 7 50 c4 28 10 53 15 55 13 8 21 -32 13
-70 l-6 -35 38 0 39 0 -3 55 -4 55 29 -5 c114 -21 209 -35 230 -35 30 0 20
-22 -23 -51 l-29 -19 38 0 c40 0 104 28 126 54 10 12 31 16 77 16 58 0 64 -2
64 -20 0 -14 -11 -26 -32 -35 -31 -14 -27 -15 71 -13 103 1 104 1 81 20 -30
24 -15 23 26 -2 24 -15 46 -20 82 -18 28 2 47 7 44 12 -3 5 2 7 11 3 10 -4 16
-2 14 4 -1 6 9 15 22 20 22 9 23 8 10 -8 -10 -13 -6 -11 17 4 47 34 80 39 93
14 9 -16 7 -23 -11 -36 -22 -15 -18 -15 62 -14 51 1 88 6 92 13 6 8 8 7 8 -1
0 -9 17 -13 50 -13 l50 0 0 1000 0 1000 -1000 0 -1000 0 0 -1000z m760 956 c0
-3 -4 -8 -10 -11 -5 -3 -10 -1 -10 4 0 6 5 11 10 11 6 0 10 -2 10 -4z m-173
-60 c-80 -80 -150 -141 -139 -120 6 12 27 35 47 52 19 17 35 34 35 38 0 4 8
13 18 21 11 9 12 12 2 8 -8 -4 -4 4 10 17 14 13 36 24 47 25 19 1 16 -5 -20
-41z m114 -39 c-10 -9 -11 -8 -5 6 3 10 9 15 12 12 3 -3 0 -11 -7 -18z m204
-123 c-26 -20 -55 -36 -55 -30 0 5 63 46 70 46 3 -1 -4 -8 -15 -16z m-450 -4
c-9 -14 9 -12 24 3 10 10 11 9 6 -5 -4 -10 -13 -18 -20 -18 -16 0 -27 15 -18
24 10 9 15 7 8 -4z m-65 -45 c-14 -17 -65 -20 -75 -6 -3 6 12 12 32 14 21 2
42 4 47 5 5 1 3 -5 -4 -13z m440 7 c0 -15 -11 -21 -27 -15 -12 5 -12 7 -1 14
17 11 28 11 28 1z m427 -68 c2 -6 -22 -18 -54 -27 l-57 -16 34 30 c33 29 70
35 77 13z m137 -16 c19 -17 18 -17 -12 -6 -17 7 -34 18 -36 25 -6 16 23 5 48
-19z m-117 -14 c-3 -3 -12 -4 -19 -1 -8 3 -5 6 6 6 11 1 17 -2 13 -5z m-953
-49 c-12 -43 -33 -87 -34 -74 0 5 15 53 35 107 2 6 6 12 9 12 2 0 -2 -20 -10
-45z m872 30 c-11 -8 -24 -15 -29 -15 -4 0 -23 -11 -40 -24 -50 -36 -64 -42
-42 -16 11 12 43 33 70 46 57 27 68 29 41 9z m198 -37 c81 -49 88 -56 106
-106 25 -67 25 -132 1 -181 -22 -43 -88 -105 -122 -116 -13 -4 -29 -14 -37
-21 -9 -10 -41 -14 -104 -14 l-90 0 -40 38 c-66 62 -88 108 -88 186 0 94 28
149 98 190 83 48 127 66 183 75 4 1 46 -23 93 -51z m72 -10 l29 -33 -32 29
c-31 28 -38 36 -30 36 2 0 16 -15 33 -32z m-1086 -32 c0 -2 -7 -7 -16 -10 -8
-3 -12 -2 -9 4 6 10 25 14 25 6z m574 -36 c24 -60 19 -71 -9 -21 -27 46 -31
61 -16 61 5 0 16 -18 25 -40z m-611 -5 c-3 -9 -8 -14 -10 -11 -3 3 -2 9 2 15
9 16 15 13 8 -4z m574 -7 c34 -38 43 -63 44 -135 1 -52 -4 -79 -19 -108 -25
-50 -93 -118 -137 -139 -38 -18 -132 -21 -188 -5 -38 10 -39 11 -32 47 9 54
25 102 34 102 4 0 13 12 20 28 7 15 24 44 38 65 25 36 26 37 40 17 29 -41 84
-10 61 35 -6 11 -15 23 -19 26 -12 7 100 89 121 89 9 0 26 -10 37 -22z m85
-48 c-11 -30 -18 -42 -20 -30 -3 17 23 80 32 80 2 0 -3 -22 -12 -50z m527 10
c0 -10 -3 -8 -9 5 -12 27 -12 43 0 25 5 -8 9 -22 9 -30z m-1208 -11 c-5 -13
-10 -19 -10 -12 -1 15 10 45 15 40 3 -2 0 -15 -5 -28z m-18 -170 c-4 -4 -6 24
-3 64 l5 72 3 -64 c2 -35 -1 -68 -5 -72z m462 112 c7 -12 -12 -24 -25 -16 -11
7 -4 25 10 25 5 0 11 -4 15 -9z m-270 -51 c-3 -4 -6 -33 -6 -64 -2 -72 -19
-85 -19 -14 0 63 9 100 21 92 5 -3 7 -9 4 -14z m566 -122 c25 -32 27 -38 11
-29 -12 6 -26 20 -32 32 -6 11 -15 17 -20 14 -6 -4 -7 1 -3 11 3 10 2 15 -3
12 -5 -3 -10 15 -11 41 l-2 46 14 -44 c7 -24 28 -61 46 -83z m-84 60 c-3 -8
-6 -5 -6 6 -1 11 2 17 5 13 3 -3 4 -12 1 -19z m550 -24 c-22 -49 -57 -102 -72
-108 -8 -3 6 25 30 61 25 37 45 71 45 77 0 5 2 7 5 4 3 -3 -1 -18 -8 -34z
m-34 -4 c-10 -17 -28 -37 -40 -45 -12 -8 -30 -24 -41 -35 -25 -27 -105 -50
-167 -49 l-50 2 62 7 c97 11 134 30 208 107 48 50 51 51 28 13z m257 -75 c0
-7 5 -15 11 -17 6 -2 13 -18 15 -36 4 -34 8 -31 -70 -47 -14 -3 -33 -20 -45
-40 -11 -20 -29 -38 -38 -42 -10 -3 -30 -17 -44 -30 -15 -14 -33 -23 -40 -22
-18 3 -92 -12 -99 -20 -24 -29 -216 -48 -525 -52 -109 -1 -136 -5 -164 -21
-33 -19 -43 -19 -170 -8 -220 18 -261 34 -261 104 0 41 28 96 50 96 16 0 19
-30 4 -45 -8 -8 -18 -30 -21 -48 -5 -31 -3 -33 46 -51 28 -10 79 -19 113 -21
l63 -4 -60 9 c-81 11 -108 23 -124 53 -18 34 -9 56 21 50 20 -4 24 -1 23 22 0
32 34 60 43 36 9 -26 54 -65 61 -53 4 7 12 8 21 2 26 -17 42 -12 31 8 -9 16
-4 18 52 21 34 2 72 4 85 5 12 0 22 5 22 10 0 4 6 6 14 3 7 -3 19 0 26 6 9 9
11 9 6 0 -6 -12 82 29 124 57 42 29 101 32 143 10 20 -11 44 -20 52 -20 8 0
15 -4 15 -9 0 -5 8 -12 18 -15 9 -3 28 -16 42 -29 28 -26 98 -48 150 -46 41 2
125 42 159 76 14 13 30 22 37 19 6 -2 30 13 54 35 23 21 48 39 56 39 8 0 14 4
14 9 0 13 51 29 73 23 9 -2 17 -10 17 -17z m-1273 -7 c-3 -8 -6 -5 -6 6 -1 11
2 17 5 13 3 -3 4 -12 1 -19z m705 -53 c40 -11 65 -21 55 -23 -38 -8 -177 53
-177 78 0 5 11 -1 24 -13 13 -13 57 -31 98 -42z m-292 30 c-7 -8 -17 -15 -23
-15 -6 0 -2 7 9 15 25 19 30 19 14 0z m531 2 c-6 -8 -7 -18 -3 -22 4 -5 2 -5
-5 -1 -7 4 -29 0 -49 -9 -20 -8 -48 -15 -63 -14 -17 0 -6 6 29 15 30 8 64 21
75 29 26 18 30 18 16 2z m-765 -57 c42 -8 72 -8 104 -1 58 13 65 6 9 -9 -27
-8 -65 -9 -99 -5 -30 4 -64 8 -76 9 -11 0 -21 7 -21 14 0 7 6 11 13 8 6 -2 38
-10 70 -16z m-202 -35 c-40 -32 -54 -37 -54 -20 0 9 15 22 33 30 38 16 48 11
21 -10z m1396 9 c0 -2 -18 -4 -40 -4 -22 0 -40 3 -40 8 0 4 18 6 40 4 22 -2
40 -6 40 -8z m21 -23 c-12 -8 -51 -4 -51 5 0 2 15 4 33 4 22 0 28 -3 18 -9z
m-1081 -191 c-8 -5 -19 -10 -25 -10 -5 0 -3 5 5 10 8 5 20 10 25 10 6 0 3 -5
-5 -10z m160 -10 c17 -6 1 -8 -53 -9 -50 -1 -76 3 -72 9 7 12 89 12 125 0z
m-196 -26 c3 -8 2 -12 -4 -9 -6 3 -10 10 -10 16 0 14 7 11 14 -7z m-572 -70
c-8 -14 -9 -13 -9 10 0 18 3 24 9 18 7 -7 7 -16 0 -28z m-2 -64 c0 -21 -16
-35 -24 -22 -8 13 5 53 15 46 5 -3 9 -14 9 -24z m290 15 c-1 -6 -17 -37 -37
-70 -19 -33 -32 -52 -29 -42 5 17 5 17 -18 0 -14 -10 -31 -30 -40 -44 -18 -30
-42 -34 -49 -7 -6 21 49 102 64 93 5 -4 28 14 52 39 38 43 61 55 57 31z m0
-52 c-11 -17 -11 -17 -6 0 3 10 6 24 7 30 0 9 2 9 5 0 3 -7 0 -20 -6 -30z
m-323 -8 c5 -4 2 -4 -6 0 -11 6 -13 4 -8 -8 4 -11 2 -14 -8 -11 -22 9 -25 31
-4 29 10 -1 22 -5 26 -10z m138 -41 c-16 -31 -20 -33 -26 -17 -12 30 -10 53 6
53 8 0 15 5 15 12 0 9 3 9 12 0 10 -10 8 -20 -7 -48z m740 -25 c-13 -30 -25
-61 -25 -69 0 -12 -2 -12 -15 1 -9 8 -18 39 -22 67 -6 50 -5 52 18 52 13 0 31
5 39 10 28 18 31 -7 5 -61z m-780 -7 c-1 -15 -3 -31 -4 -36 0 -4 -7 -6 -15 -3
-9 4 -16 -3 -20 -16 -4 -16 -8 -19 -14 -9 -11 17 -42 5 -52 -22 -9 -21 -9 -21
-9 2 -1 15 -7 22 -21 22 -11 0 -20 -5 -20 -11 0 -6 -7 -8 -16 -5 -8 3 -13 2
-11 -2 2 -4 -1 -23 -9 -42 -7 -21 -13 -28 -14 -17 -2 9 -3 23 -4 30 -1 6 14
29 33 49 28 31 37 36 53 27 16 -8 20 -7 24 8 3 10 21 28 40 41 18 12 34 28 34
35 1 7 7 4 15 -6 7 -11 12 -31 10 -45z m610 -12 c4 -16 11 -30 16 -30 4 0 16
-15 25 -32 9 -18 26 -39 36 -47 11 -7 17 -19 14 -27 -5 -13 6 -18 27 -15 4 0
7 -6 7 -14 0 -8 4 -15 9 -15 5 0 7 -8 4 -18 -2 -10 7 -34 21 -55 l25 -37 -42
1 c-23 1 -71 8 -107 17 -60 16 -65 19 -63 42 2 14 5 52 9 85 5 53 4 58 -9 42
-8 -9 -17 -35 -21 -58 -3 -22 -13 -42 -21 -46 -9 -3 -43 5 -76 17 -59 22 -60
23 -53 54 10 47 44 124 62 138 13 11 15 11 8 -2 -4 -8 -1 -7 7 3 11 13 16 14
19 5 3 -9 13 -8 44 4 53 22 52 22 59 -12z m-455 -15 c0 -14 -4 -25 -9 -25 -4
0 -6 11 -3 25 2 14 6 25 8 25 2 0 4 -11 4 -25z m-190 -75 c0 -11 -4 -20 -8
-20 -4 0 -8 9 -9 20 -1 11 2 20 8 20 5 0 9 -9 9 -20z m30 -1 c0 -5 -4 -9 -8
-9 -5 0 -9 7 -9 15 0 8 4 12 9 9 4 -3 8 -9 8 -15z m1645 11 c3 -5 -1 -10 -9
-10 -9 0 -16 5 -16 10 0 6 4 10 9 10 6 0 13 -4 16 -10z m-401 -45 c-9 -14 -20
-25 -24 -25 -4 0 -24 -21 -44 -47 -34 -44 -36 -45 -36 -20 0 15 -4 27 -9 27
-5 0 -11 11 -13 25 -5 22 -2 25 23 25 16 0 29 4 29 9 0 4 15 13 33 19 53 17
59 15 41 -13z m312 6 c-4 -5 -2 -21 4 -36 5 -14 6 -24 1 -21 -5 4 -12 0 -14
-6 -3 -7 -6 3 -6 23 -1 20 2 39 6 42 9 10 15 8 9 -2z m-466 -95 l0 -63 -37 -7
c-60 -9 -93 -7 -93 7 1 35 41 99 72 112 55 24 58 21 58 -49z m-1201 21 c-2 -1
-13 -9 -24 -17 -19 -14 -19 -14 -6 3 7 9 18 17 24 17 6 0 8 -1 6 -3z m-89 -27
c0 -11 -4 -20 -9 -20 -7 0 -8 17 -2 38 4 10 11 -2 11 -18z m17 -2 c-3 -8 -6
-5 -6 6 -1 11 2 17 5 13 3 -3 4 -12 1 -19z m1480 -40 c-7 -76 -44 -188 -61
-188 -7 0 -27 5 -43 11 l-31 10 14 44 c7 24 18 54 25 67 14 27 88 118 96 118
3 0 3 -28 0 -62z m-1302 -56 c-11 -11 -22 11 -17 35 l5 28 8 -29 c5 -17 7 -32
4 -34z m475 3 c35 -7 55 -17 55 -26 0 -11 -18 -15 -75 -17 -88 -3 -105 5 -96
43 6 24 10 26 34 19 15 -4 52 -12 82 -19z m-636 -52 c3 -8 -1 -24 -9 -36 -8
-12 -15 -17 -15 -11 0 5 6 16 13 23 10 10 9 15 -5 25 -22 16 -24 27 -4 20 8
-3 17 -12 20 -21z m1625 -56 c-2 -1 -13 -9 -24 -17 -19 -14 -19 -14 -6 3 7 9
18 17 24 17 6 0 8 -1 6 -3z m-89 -21 c0 -2 -7 -7 -16 -10 -8 -3 -12 -2 -9 4 6
10 25 14 25 6z"/>
<path d="M1257 1387 c-40 -32 -23 -82 25 -75 18 2 24 10 26 35 4 38 -25 61
-51 40z m33 -44 c0 -7 -7 -13 -15 -13 -16 0 -19 9 -9 35 5 13 8 14 15 3 5 -7
9 -19 9 -25z"/>
<path d="M638 813 c18 -2 45 -2 60 0 15 2 0 4 -33 4 -33 0 -45 -2 -27 -4z"/>
<path d="M204 515 c-9 -21 -2 -26 13 -10 8 9 9 16 3 20 -6 3 -13 -1 -16 -10z"/>
<path d="M164 499 c-4 -8 -3 -9 4 -5 7 4 12 2 12 -3 0 -6 -4 -11 -10 -11 -5 0
-10 -4 -10 -10 0 -5 7 -7 15 -4 17 7 20 30 6 39 -5 3 -13 0 -17 -6z"/>
</g>
</svg>
